<?xml version="1.0" encoding="utf-8"?>
<!DOCTYPE svg>
<svg version="1.1" id="Swing-Spring-Logo" xmlns="http://www.w3.org/2000/svg" xmlns:xlink="http://www.w3.org/1999/xlink" x="0px" y="0px" viewBox="96.348 47.386 585.906 468.393" enable-background="new 96.348 47.386 585.906 468.393" xml:space="preserve" role="img" aria-label="Swing Spring 2015">
<title>Swing Spring 2015</title>
<desc>Swing Spring 2015 logo</desc>
<path id="y20" d="M119.16,288.69c6.762,0.401,14.068,3.997,14.068,13.129c0,6.912-7.541,14.693-15.961,21.559
	c7.514-8.073,9.783-13.278,9.783-19.863C127.051,295.383,124.152,290.056,119.16,288.69 M113.997,332.235
	c1.441,0,2.708,0.246,3.854,0.744c3.23,1.439,5.938,2.139,8.275,2.139c2.29,0,4.105-0.65,5.549-1.732
	c-2.598,3.269-6.059,5.017-10.199,5.017c-1.377,0-2.818-0.201-4.322-0.608c-0.537-0.134-1.096-0.279-1.668-0.428
	c-3.061-0.795-6.529-1.695-9.46-1.695c-0.612,0-1.182,0.038-1.712,0.116c0.061-0.047,0.122-0.093,0.184-0.14l0.074-0.055
	l0.066-0.061c0.912-0.822,1.791-1.62,2.634-2.395l4.426-0.709C112.5,332.301,113.273,332.235,113.997,332.235 M117.866,286.652
	c-9.478,0-18.358,6.785-20.853,15.865c-2.694,9.778,3.094,18.459,12.172,18.459c2.396,0,2.295-2.895,0.101-2.895
	c-7.383,0-10.676-7.982-9.179-13.47c2.594-9.578,9.578-14.269,16.362-14.269c5.788,0,8.581,5.487,8.581,13.171
	c0,8.781-4.49,14.967-21.751,30.532c-1.198,0.897-2.195,1.796-2.994,2.694c-0.1,0.099-0.198,0.199-0.299,0.199l0.101,0.1
	c-1.298,1.497-2.097,3.094-2.097,4.39c0,1.987,0.566,2.665,1.198,2.665c0.796,0,1.695-1.075,1.695-1.966
	c0-3.403,2.164-4.458,5.122-4.458c3.198,0,7.325,1.233,10.643,2.063c1.644,0.445,3.253,0.668,4.808,0.668
	c8.553,0,15.455-6.748,17.145-20.425c0.316-2.536-0.485-3.841-1.385-3.841c-0.798,0-1.673,1.03-1.908,3.143
	c-1.068,9.613-3.965,13.839-9.201,13.839c-2.1,0-4.576-0.681-7.462-1.966c-1.49-0.647-3.064-0.917-4.668-0.917
	c-0.866,0-1.741,0.079-2.615,0.219c10.775-7.981,23.847-18.658,23.847-28.635C135.229,291.341,126.647,286.652,117.866,286.652
	L117.866,286.652z M172.752,294.146c8.668,3.821,10.161,14.593,10.161,21.543c0,8.071-3.496,15.319-8.612,19.337
	c2.859-4.073,3.632-10.738,3.632-19.038C177.933,307.016,177.43,298.199,172.752,294.146 M156.96,295.566
	c-3.612,4.324-4.279,11.881-4.279,19.821c0,8.639,0.47,17.132,4.729,21.334c-8.268-3.992-9.708-14.507-9.708-21.334
	C147.701,306.98,151.494,299.467,156.96,295.566 M165.456,290.743h-0.1c-10.276,0-19.655,10.576-19.655,24.645
	c0,11.774,4.19,24.945,19.456,24.945h0.101c10.275,0,19.655-10.577,19.655-24.645C184.913,303.914,180.822,290.743,165.456,290.743
	L165.456,290.743z M164.758,337.439c-7.882,0-10.077-6.785-10.077-22.052c0-15.165,2.793-21.552,11.074-21.552h0.101
	c7.883,0,10.077,6.885,10.077,22.151c0,15.066-2.694,21.452-11.074,21.452H164.758L164.758,337.439z"/>
<path id="y15" d="M632.847,295.312c0.118,0.657,0.214,1.608,0.214,2.964c0,1.898-0.021,7.95-0.042,14.367
	c-0.024,7.244-0.051,14.953-0.051,17.68c0,2.318,0,7.004-0.633,8.244c-0.247-0.082-0.741-0.306-1.557-0.916
	c-2.109-1.641-2.149-1.673-2.075-5.611c0.343-10.607,1.827-24.878,3.453-33.195L632.847,295.312 M632.82,292.105
	c-0.077,0-0.157,0.006-0.239,0.019c-0.551,0-1.652,0.827-2.847,2.664c-2.938,4.407-7.621,8.906-10.467,11.477
	c-2.756,2.479-3.766,3.489-3.122,4.224c0.235,0.269,0.507,0.439,0.884,0.439c0.652,0,1.618-0.512,3.248-1.908
	c3.305-2.755,7.254-7.07,9.916-10.56c-1.562,7.989-3.121,22.129-3.489,33.515c-0.092,4.866,0.368,5.326,2.847,7.254
	c1.264,0.947,2.232,1.385,2.977,1.385c2.284,0,2.44-4.127,2.44-10.291c0-5.143,0.093-28.006,0.093-32.047
	C635.061,294.855,634.475,292.105,632.82,292.105L632.82,292.105z M656.116,290.972c1.675,0,3.39,0.534,5.561,1.21
	c0.897,0.279,1.825,0.568,2.869,0.859l0.026,0.007l0.025,0.007c0.493,0.123,1.007,0.257,1.533,0.393
	c2.825,0.734,6.028,1.566,8.746,1.566c0.341,0,0.664-0.014,0.972-0.039c-2.344,1.615-5.357,2.885-8.358,2.885
	c-1.249,0-2.407-0.229-3.408-0.666c-1.061-0.487-1.984-0.965-2.877-1.427c-2.334-1.208-4.35-2.25-6.764-2.25
	c-0.676,0-1.341,0.079-2.032,0.243l-0.086,0.021l-0.084,0.028c-1.107,0.367-2.293,1.292-3.651,7.148
	c0.849-5.305,2.13-8.37,3.809-9.117C653.729,291.248,654.912,290.972,656.116,290.972 M664.488,313.072
	c5.432,0.422,11.082,2.863,11.082,11.189c0,7.182-5.885,14.256-13.048,16.822c4.583-2.681,7.683-8.438,7.683-15.262
	C670.205,323.047,670.205,315.591,664.488,313.072 M647.533,313.459c0.125,0.264,0.274,0.497,0.448,0.706
	c0.159,0.19,0.338,0.358,0.532,0.5c-0.109,0.012-0.214,0.019-0.311,0.019c-0.193,0-0.277-0.026-0.287-0.026v0.001
	C647.756,314.503,647.614,314.15,647.533,313.459 M648.279,322.404c1.819,0,2.201,1.325,2.281,1.896
	c0.091,0.649-0.084,1.398-0.554,1.532c-3.536,1.049-5.563,3.188-5.563,5.867v0.004c-0.342-1.493-0.499-3.025-0.499-4.503
	C643.944,327.004,643.993,322.404,648.279,322.404 M681.15,287.102c-0.732,0-1.561,0.99-1.561,1.81c0,3.132-1.991,4.103-4.713,4.103
	c-2.943,0-6.741-1.136-9.794-1.899c-3.702-1.031-6.239-2.143-8.967-2.143c-1.399,0-2.85,0.293-4.531,1.04
	c-1.652,0.735-3.856,2.664-5.142,11.754c-1.65,11.551-1.283,14.918,1.76,14.918c0.852,0,1.912-0.264,3.197-0.686
	c3.473-1.176,6.329-1.771,8.639-1.771c5.813,0,8.166,3.776,8.166,11.596c0,7.805-4.684,14.875-11.57,14.875
	c-7.712,0-10.191-3.029-10.191-8.998c0-1.837,1.652-3.214,4.132-3.949c3.213-0.917,2.662-7.346-2.296-7.346
	c-4.5,0-6.335,3.766-6.335,6.796c0,9.089,5.142,16.895,14.966,16.895c10.284,0,20.66-9.458,20.66-19.833
	c0-9.705-6.916-13.262-14.984-13.262c-3.765,0-7.779,0.774-11.46,2.06c-0.307,0.112-0.582,0.173-0.823,0.173
	c-1.35,0-1.658-1.897-0.646-7.426c1.47-8.356,2.664-9.918,3.214-10.101c0.549-0.13,1.067-0.189,1.571-0.189
	c2.696,0,4.936,1.714,8.805,3.494c1.352,0.59,2.787,0.849,4.244,0.849c7.154,0,14.763-6.262,14.763-10.306
	C682.253,287.726,681.731,287.102,681.15,287.102L681.15,287.102z"/>
<g id="Swing-spring">
	<g id="SPRING">
		<g id="S">
			<path d="M155.758,429.281c-5.191-1.361-23.625-5.406-23.878-9.951c-0.418-7.509,11.4-8.397,16.032-7.971
				c8.225,0.756,14.748,6.393,19.488,12.781c6.71-1.652,10.729-4.896,14.003-9.918c-0.635-1.336-12.316-20.527-52.695-14.305
				c-7.381,1.627-14.825,3.25-21.001,10.798c-4.882,5.966-6.321,13.966-6.378,21.446c2.83,33.02,39.285,32.532,62.571,43.173
				c2.733,1.249,7.847,6.348,7.438,11.96c-1.204,12.414-18.648,15.897-29.514,15.584c-9.897-0.286-26.192-5.879-26.056-17.626
				c0.069-5.999,9.429-10.939,9.917-12.397c-8.266-6.514-14.877-10.014-19.835-10.502c-8.719,8.396-14.969,23.021-2.425,38.378
				c4.351,5.081,19.206,14.858,41.949,14.858c14.353,0,31.028-3.854,40.986-14.994c10.291-11.515,10.771-32.699,6.854-43.639
				C190.573,449.576,184.445,436.125,155.758,429.281z M104.7,499.657c-7.45-8.397-10.443-23.763,2.153-35.603
				c0,0,10.768,4.437,16.343,9.042c-26.017,16.221,5.175,35.52,26.12,31.478c7.508-1.449,17.373-3.419,21.759-10.355
				c5.298-10.022-0.954-19.228-10.085-21.809c-15.869-6.669-40.219-9.837-50.774-21.983c-8.634-9.935-8.911-25.367-3.209-35.755
				c5.126-9.338,17.142-11.545,22.74-12.687c10.205-1.682,21.329-1.798,31.322,1.076c4.632,1.333,10.897,2.735,18.284,11.017
				c-1.408,2.547-5.658,5.703-10.846,7.984c-8.208-12.562-24.402-13.846-31.889-11.485s-7.361,9.423-4.799,11.86
				c2.428,2.309,8.635,4.138,8.635,4.138c12.928,4.925,41.666,7.164,49.822,28.036c7.344,19.88,3.719,41.005-14.347,52.335
				C150.121,520.991,114.829,512.117,104.7,499.657z"/>
			<path d="M163.463,506.11c14.17-7.69,14.134-16.532,12.4-25.23c-4.73-20.63-62.565-14.674-67.48-42.592
				c-3.694-20.986,10.014-33.257,27.5-33.399c-9,5.111-10.875,7.861-10.63,12.401c0.962,16.375,35.669,13.7,54.399,29.33
				S195.133,505.68,163.463,506.11z"/>
			<path d="M115.922,473.501l-8.612-5.604c-17.76,25.271,14.684,42.302,23.92,39.104
				C119.164,504.983,100.383,488.834,115.922,473.501z"/>
		</g>
		<g id="P">
			<path d="M285.997,402.608L285.997,402.608c-0.275,0.562-0.589,1.098-0.888,1.644c11.629,5.847,21.34,18.5,20.854,35.374
				c0.253,11.374-4.831,48.124-64.908,48.78L240.474,513h-38.091l0.342-112.351l68.828,0.026c2.645,0.072,5.348,0.535,8.02,1.35
				c0.285-0.544,0.579-1.084,0.837-1.643l0,0c-2.824-0.852-5.678-1.312-8.464-1.332l-71.291-0.289l-0.437,115.662l1.021,1.02
				l41.276-1.02l0.583-24.213c30.785-1.336,63.035-11.336,65.334-50.608C308.487,422.08,298.172,408.672,285.997,402.608z"/>
			<path d="M299.664,427.484c-2.444-7.854-7.798-14.284-15.075-18.126c1.266-1.803,2.401-3.701,3.385-5.7
				c-0.652-0.374-1.313-0.718-1.978-1.047c-4.921,10.031-13.467,17.385-23.293,22.442c-0.001-0.007-0.002-0.014-0.004-0.021
				c-0.482,0.248-0.963,0.497-1.451,0.734c0.001,0.004,0.002,0.008,0.003,0.012c-5.767,2.803-11.925,4.84-18.021,6.179l-0.025-3.709
				c16.42-4.208,31.512-13.183,39.072-27.241c-1.953-0.714-3.93-1.24-5.899-1.564c-1.113,2.055-2.436,3.995-3.921,5.83
				c-6.498-1.241-14.297-1.535-23.678-0.529c-0.35,0.037-1.092,1.128-0.411,1.285c6.45,0.58,11.413,3.219,15.031,7.691
				c-1.374,0.988-2.813,1.915-4.299,2.792c-4.597-6.188-11.505-4.71-18.101-5.353v66.654c12-0.439,24.504-2.529,23.439-35.734
				c-0.103-6.289-0.579-11.27-1.352-15.23c1.87-0.904,3.696-1.875,5.452-2.932c3.102,10.148,3.015,21.412,2.001,31.887
				c-0.665,6.867-2.05,14.423-6.844,19.713c-3.74,4.128-9.104,6.059-14.475,6.963c10.075,0.588,20.2-1.511,29.195-6.09
				c5.926-3.017,11.736-7.099,15.9-12.351c3.425-4.312,5.18-10.083,6.189-15.41C301.828,441.666,301.781,434.289,299.664,427.484z
				 M257.27,417.543c-4.377,2.383-9.137,4.303-14.1,5.709l-0.072-10.488C247.781,413.271,253.213,412.8,257.27,417.543z
				 M263.317,445.877c0.57,28.188-11.382,28.59-19.782,30.332l-0.295-42.842c6.369-1.248,12.627-3.202,18.439-5.86
				C262.7,432.024,263.304,437.98,263.317,445.877z"/>
			<polygon points="206.927,405.526 206.343,509 235.367,509 235.806,405 207.509,405 206.927,405.526 206.927,405.526 			"/>
		</g>
		<g id="R">
			<path d="M381.656,484.086c8.946-4.084,39.337-15.086,39.088-43.902c-0.287-33.249-28.927-42.004-59.36-41.422l-47.694,1.021
				l1.021,67.967l0.527,46.674c18.229-0.398,41.832-0.674,41.832-0.674c-0.875-13.062,0.438-23.547,0.438-23.547
				s1.441-0.186,2.609-0.574c20.849,39.455,48.848,22.867,50.971,21.731c5.379-2.877,11.212-9.609,9.647-22.315
				C396.466,502.584,381.383,485.417,381.656,484.086z M394.785,513.986c-23.152,0.264-33.152-26.611-33.152-26.611
				s-4.528,0.553-5.792,1.232c-0.391,3.695-0.391,19.544,0,23.336c-4.279-0.193-10.6-0.121-18.96,0.219
				c-8.365,0.342-14.731,0.414-19.107,0.219l-1.604-110.557c2.136,0.099,35.477-0.728,46.964-1.311
				c16.132-0.818,55.437,3.611,55.714,40.4c-0.09,9.461-2.09,15.168-6.27,20.711c-6.614,8.654-17.94,15.947-33.985,21.877
				c16.353,21.061,37.938,9.391,40.55,8.168C420.008,492.938,422.008,511.625,394.785,513.986z M354.814,411.307l1.457,66.51
				c9.972-0.365,22.255-4.349,21.289-34.461C377.034,410.974,365.686,412.364,354.814,411.307z M357.867,475.38l-1.191-62.632
				c8.904,1.285,18.903,0.25,18.957,31.813C376.225,473.773,364.133,474.75,357.867,475.38z"/>
			<path d="M372.029,480.992c23.608-5.296,53.354-23.825,39.089-56.271c-11.197-18.889-32.067-21.22-50.755-18.812
				c18.688,3.093,22.401,15.896,22.961,38.744s-3.287,32.51-18.879,36.809c3.271,22.873,35.854,41.622,50.175,17.539
				C398.8,505.25,382.217,496.833,372.029,480.992z"/>
			<path d="M320.838,406.562L322.733,508h28.003l-2.042-102.494C344.804,405.312,325.405,406.271,320.838,406.562z"/>
		</g>
		<g id="I">
			<path d="M468,482.048v-0.027c0,0.007-1.064-0.021-1.805-0.021c-0.085,0-0.154,0-0.195,0v0.011
				c-13.234-0.111-26.666-2.231-38.669-7.982c0.102,0.053,0.206,0.101,0.308,0.153c-0.307-0.145-0.621-0.28-0.923-0.429
				l0.156,41.306l41.503-0.006L468,482.048z M429,513.125v-38.273c1.316,0.637,2.646,1.246,4,1.801V508h28v-25.241
				c1.632,0.107,3.305,0.172,5,0.215V513L429,513.125z"/>
			<path d="M468.389,476.604L468.389,476.604l-0.395-77.987l-41.562,0.011l0.258,68.243l0,0l0.021,5.254
				c10.06,4.353,22.437,6.905,37.208,6.905c1.473,0,2.969-0.024,4.482-0.07L468.389,476.604z M461,473.53V406h-0.071L433,405.322
				v62.943c-1.381-0.527-2.704-1.1-4-1.693v-65.447L466,401v72.597c-0.34,0.002-0.685,0.01-1.023,0.01
				C463.627,473.606,462.307,473.575,461,473.53z"/>
		</g>
		<g id="N">
			<path d="M570.508,398.656l-12.938-0.031l0.125,61.762l-8.618-7.354c-0.341,0.3-0.688,0.589-1.03,0.884l0.008,0.006
				c-1.389,1.192-2.789,2.349-4.207,3.451l-0.022-0.02c-8.677,6.699-18.028,11.795-27.371,15.525l0.059,0.05
				c-1.571,0.624-3.146,1.2-4.721,1.753l-0.04-0.034c-0.703,0.248-1.406,0.487-2.107,0.72l45.738,38.82
				c0.171,0,15.875-0.25,15.875-0.25L570.508,398.656z M556.529,512.631l-43.317-36.745c1.58-0.545,3.159-1.113,4.735-1.73
				L557.55,508h6.833l-0.764-33.832l-18.204-15.464c1.427-1.099,2.837-2.251,4.234-3.438l9.753,8.213L559.32,400h9.024
				l1.101,112.312L556.529,512.631z"/>
			<path d="M540.781,445.953L485.758,399l-14.188-0.229L471.791,515h13.404l0.013-60.373l21.102,17.91
				c13.625-4.432,27.243-11.502,39.522-22.274L540.781,445.953z M535.889,450.613l-51.94-44.121L477,405.909v33.251l32.119,27.449
				c-1.616,0.604-3.24,1.163-4.87,1.674l-20.866-17.7l-0.042,62.792l-9.517-0.207L473.07,401h12.138l54.571,45.954
				C538.503,448.232,537.205,449.449,535.889,450.613z"/>
		</g>
		<g id="G">
			<path d="M637.383,432l0.249,70.062c-10.298-0.312-17.71-3.188-17.249-47.188c-1.254-29.319,5.294-38.665,16.266-42.17
				c11.99-3.311,18.651-1.121,23.753,8.955c4.027-1.015,10.242-0.105,14.419-8.459c-12.562-14.439-30.779-14.439-39.238-14.439
				c-17.987,0-32.523,5.495-43.609,16.482c-10.406,10.307-15.606,24.065-15.606,41.275c0,6.709,0.873,13.418,2.625,20.128
				c1.943,7.391,6.418,14.392,13.416,21.003c6.322,6.029,13.37,10.501,21.15,13.418c10.404,2.918,20.263,4.375,29.888,4.375
				c14.391,0,25.555-3.256,34.555-9.771V432H637.383z M676,505.088c-10,6.031-21.621,9.043-35.232,9.043
				c-14.199,0-26.585-3.158-37.379-9.48c-9.044-5.346-15.701-12.785-20.074-22.314c-4.183-8.945-6.16-19.027-5.225-30.191
				c3.885-46.38,41.613-51.77,57.479-51.486c11.471,0.205,25.809,0.967,37.345,13.127c-0.876,1.849-8.554,5.738-10.499,6.418
				c-1.414-1.502-5.65-10.118-16.332-10.064c-26.293,0.131-28.866,20.779-28.7,46.512c0.284,44.037,8.626,47.6,21.536,47.533
				L639.52,434H676V505.088z"/>
			<path d="M611.757,456.525C611.757,424,621,406,642,405.325v-0.583c-31-3.004-58.646,14.973-60.385,47.578
				C581.664,504.519,624,508.883,633,508.883v-0.591C620,506.375,611.757,489.051,611.757,456.525z"/>
			<path d="M671.706,502.608l-0.532-64.32L643,439.164v70.445C660,509.666,671.51,503.484,671.706,502.608z"/>
		</g>
	</g>
	<g id="Swing-CUT">
		<path d="M426.71,472.125l-0.025-6.658c-2.445-1.248-4.729-2.613-6.841-4.092c-1.231-1.111-2.383-2.269-3.464-3.461
			c-1.126,2.065-2.424,3.987-3.854,5.767C416.588,466.942,421.316,469.792,426.71,472.125z"/>
		<path d="M200.564,422.469c-3.523-1.333-6.703-2.988-9.545-4.914c-10.07-9.312-14.569-22.566-14.569-35.535
			c0-23.388,21.186-37.286,29.998-38.98c0.603-0.121,1.193-0.117,1.772-0.014c0.724,1.115,1.406,2.441,2.04,3.979
			c3.221,6.949,15.932,3.221,13.729-8.305c-0.511-2.833-1.594-5.152-3.001-7.027c2.842,2.129,5.168,5.41,6.001,10.027
			c1.655,8.66-5.108,12.917-9.941,11.551c4.624,3.536,13.845-0.596,11.941-10.551c-1.054-5.847-4.495-9.566-8.358-11.491
			c-3.752-4.614-9.588-6.223-13.76-5.39c-8.474,1.525-40.675,20.678-40.675,52.2c0,23.91,14.437,42.057,34.35,49.433
			L200.564,422.469z M171.45,378.02c0-23.388,21.186-37.286,29.998-38.98c2.392-0.479,4.612,0.822,6.547,3.648
			c-1.126-0.663-2.313-0.895-3.547-0.648c-8.812,1.694-29.998,15.593-29.998,38.98c0,11.782,3.695,23.814,11.923,32.901
			C176.038,404.59,171.45,391.149,171.45,378.02z"/>
		<path d="M426.269,251.538c0,4.576-3.898,8.474-8.812,8.474c-1.023,0-2.012-0.19-2.938-0.521c1.424,0.953,3.131,1.521,4.938,1.521
			c4.914,0,8.812-3.897,8.812-8.474c0-3.585-2.396-6.743-5.795-7.948C424.774,246.139,426.269,248.707,426.269,251.538z"/>
		<path d="M280.595,382.765c0,6.157-1.536,11.73-4.217,16.679c1.97,0.324,3.946,0.851,5.899,1.564
			c3.227-5.999,5.097-12.912,5.097-20.785c0-20.639-12.404-37.687-27.272-52.823c16.162,15.882,30.272,33.81,30.272,55.823
			c0,7.268-1.597,13.717-4.377,19.386c0.664,0.33,1.324,0.676,1.977,1.05c2.796-5.682,4.4-12.146,4.4-19.436
			c0-51.521-77.282-80.672-77.282-113.552c0-14.744,14.236-21.523,26.947-21.523c4.725,0,9.17,0.869,12.951,2.548
			c-4.166-2.334-9.365-3.548-14.951-3.548c-12.711,0-26.947,6.779-26.947,21.523c0,9.712,6.744,19.098,16.245,28.831
			c-11.05-10.815-19.245-21.126-19.245-31.831c0-14.744,14.236-21.523,26.947-21.523c13.389,0,24.574,6.949,24.574,19.66
			c0,3.051-3.22,5.084-8.474,6.271c-6.61,1.694-5.424,13.22,4.745,13.22c9.321,0,14.066-7.966,14.066-13.051
			c0-8.523-2.594-15.262-6.84-20.263c5.99,5.169,9.84,12.889,9.84,23.263c0,5.085-4.745,13.051-14.066,13.051
			c-1.362,0-2.558-0.212-3.6-0.574c1.402,0.96,3.26,1.574,5.6,1.574c9.321,0,14.066-7.966,14.066-13.051
			c0-12.243-5.354-20.796-13.273-25.81c-6.235-6.282-15.329-9.374-24.944-9.374c-15.762,0-35.251,9.49-35.251,29.15
			C203.482,325.312,280.595,349.208,280.595,382.765z"/>
		<path d="M414.456,257.012c4.914,0,8.812-3.897,8.812-8.474s-3.898-8.475-8.812-8.475c-4.746,0-8.813,3.898-8.813,8.475
			S409.71,257.012,414.456,257.012z"/>
		<path d="M549.087,453.041l1.59,1.356c2.385-2.083,4.719-4.305,6.993-6.675l-0.007-3.135
			C554.895,447.629,552.03,450.443,549.087,453.041z"/>
		<path d="M468.4,478.96c1.098-0.033,2.205-0.078,3.322-0.137l-0.011-5.341c-1.118,0.042-2.231,0.072-3.339,0.093L468.4,478.96z"/>
		<path d="M545.832,450.263c4.105-3.602,8.062-7.613,11.818-12.084l-0.032-16.038c-4.96,9.555-10.645,17.397-16.839,23.812
			L545.832,450.263z"/>
		<path d="M658.777,366.598c-2.282-3.312-4.804-5.516-7.317-6.906c-10.317-11.232-23.529-4.128-20.224,1.381
			c3.559,6.101,14.914-0.169,17.626,3.897c0.411,0.583,0.779,1.172,1.103,1.761c-3.145-0.84-8.62,0.917-12.466-0.199
			c3.188,2.513,8.951,0.801,12.863,0.977c5.255,10.943-5.696,21.888-58.22,11.661c3.842-17.164,6.13-37.077,6.13-60.195
			c0-3.22-0.169-29.32-0.169-41.522c0-11.293-0.283-18.768-4.279-19.005c2.101,2.416,2.279,8.997,2.279,18.005
			c0,12.202,0.169,38.303,0.169,41.522c0,23.376-2.337,43.479-6.256,60.772c-1.157-0.233-2.326-0.473-3.522-0.726
			c4.236-17.796,6.778-38.642,6.778-63.047c0-3.22-0.169-29.32-0.169-41.522c0-15.253-0.509-23.558-9.999-16.439
			c-2.712,2.204-4.068,3.22-4.746,5.763c-2.542-2.373-6.308-3.729-11.392-3.729c-13.729,0-35.967,8.982-35.967,42.369v1.356
			c0,8.887,0.904,15.879,2.347,21.382c-3.802,10.923-8.995,13.7-13.67,13.7c-1.235,0-2.342-0.123-3.334-0.385
			C513.57,332.5,513,322.74,513,305.415v-0.508c0-25.493-4.72-36.065-12.476-39.92c-3.774-4.567-8.814-5.941-14.753-5.941
			c-5.961,0-13.776,2.685-19.809,13.03c-0.145-8.252-0.85-13.463-4.163-13.633c2.02,2.361,2.192,8.715,2.199,17.421
			c-1.092,2.373-2.102,5.054-2.999,8.095v-10.508c0-15.253-0.381-23.558-9.873-16.439c-4.576,3.56-5.127,4.237-5.127,13.22v57.453
			c0,12.541-2.472,15.084,2.952,15.423c7.118,0.678,12.831-0.339,12.491-12.711c0-0.509-0.193-2.034-0.193-3.897
			c0.169-0.17,0.157-0.51,0.157-0.848c0-51.861,14.355-61.352,22.999-61.352c3.572,0,5.685,1.048,6.93,3.681
			c-1.062-0.459-2.345-0.681-3.93-0.681c-8.644,0-22.999,9.49-22.999,61.352c0,0.338,0.012,0.678-0.157,0.848
			c0,1.863,0.193,3.389,0.193,3.897c0.34,12.372-5.373,13.389-12.491,12.711c-0.379-0.023-0.716-0.06-1.021-0.107
			c0.486,0.704,1.399,1.006,3.021,1.107c7.118,0.678,12.831-0.339,12.491-12.711c0-0.509-0.193-2.034-0.193-3.897
			c0.169-0.17,0.157-0.51,0.157-0.848c0-51.861,14.355-61.352,22.999-61.352c0.787,0,1.495,0.058,2.146,0.165
			c1.988,4.915,1.447,14.75,1.447,32.442v0.508c0,34.744,11.738,41.861,25.127,41.861c5.887,0,12.39-2.659,17.517-12.804
			c0.717,1.568,1.517,2.936,2.375,4.161c-5.024,9.172-11.24,11.643-16.892,11.643c-3.477,0-6.839-0.487-9.916-1.806
			c3.592,2.085,7.67,2.806,11.916,2.806c5.46,0,11.444-2.32,16.374-10.747c4.657,5.261,10.904,6.747,17.873,6.747
			c8.813,0,15.746-6.101,20.492-16.947c-0.089,3.187-0.226,6.282-0.385,9.337c-4.45,6.846-10.198,10.61-17.107,10.61
			c-4.015,0-7.79-0.491-11.161-1.911c3.85,2.188,8.33,2.911,13.161,2.911c5.814,0,10.803-2.673,14.89-7.597
			c-0.812,12.905-2.246,24.621-4.151,35.29c-10.338-2.543-21.697-5.594-34.408-9.491c-40.038-12.135-72.123-10.929-95.836-2.344
			c-0.02,0.007-0.04,0.009-0.06,0.016c-1.488,0.502-2.699,0.634-3.395,0.634c-2.459,0-4.616-0.335-6.5-1.113
			c-4.186-5.739-5.914-17.064-5.914-37.596v-36.438c0-11.337-0.167-18.829-4.147-19.01c2.042,2.413,2.147,8.997,2.147,18.01v36.438
			c0,20.378,1.704,31.681,5.822,37.462c-6.308-4.334-8.822-15.701-8.822-40.462v-36.438c0-15.254-0.297-23.559-9.788-16.44
			c-4.745,3.39-5.212,4.237-5.212,13.22v2.993c-3.432,3.166-6.754,5.326-9.938,6.654c0.366-3.84,0.534-7.754,0.534-11.749
			c0-13.102-5.707-23.073-12.485-26.586c-3.043-3.431-6.69-5.378-10.311-5.378c-24.913,0-14.744,43.218,8.644,49.318
			c-3.39,22.71-11.807,40.675-19.264,40.675c-1.16,0-2.227-0.177-3.209-0.513c-5.119-7.334-5.971-22.85-5.971-40.737v-18.644
			c0-11.318-0.215-18.804-4.201-19.008c2.066,2.414,2.201,8.997,2.201,18.008v18.644c0,17.901,0.851,33.432,5.98,40.76
			c-7.82-5.112-8.98-22.817-8.98-43.76v-18.644c0-15.253-0.383-23.558-9.873-16.439c-4.744,3.56-5.127,4.237-5.127,13.22v22.879
			c0,11.017,1.342,20.508,3.884,28.304c-6.101,9.829-12.696,15.931-17.61,15.931c-1.88,0-3.56-0.349-5.069-0.999
			c-5.653-7.297-7.204-22.013-7.204-40.251v-18.644c0-11.336-0.168-18.828-4.148-19.009c2.043,2.412,2.148,8.996,2.148,18.009
			v18.644c0,18.028,1.512,32.619,7.008,40.001C306.046,329.348,304,313.045,304,292.095v-18.644c0-15.253-0.297-23.558-9.788-16.439
			c-4.745,3.56-5.212,4.237-5.212,13.22v22.879c0,32.71,12.309,50.166,29.766,50.166c6.779,0,15.222-5.762,22.679-15.252
			c0.688,1.424,1.427,2.744,2.204,3.979c-7.258,8.899-15.344,14.272-21.883,14.272c-3.365,0-6.537-0.655-9.469-1.938
			c3.47,1.94,7.321,2.938,11.469,2.938c6.32,0,14.084-5.029,21.149-13.4c4.431,6.098,10.119,9.4,16.851,9.4
			c11.864,0,24.229-19.659,28.974-46.098c5.073-0.391,10.541-2.488,16.261-6.888v5.092c-4.634,2.97-9.082,4.475-13.261,4.796
			c-4.745,26.438-17.109,46.098-28.974,46.098c-2.632,0-5.104-0.51-7.404-1.486c2.85,1.628,5.991,2.486,9.404,2.486
			c11.864,0,24.229-19.659,28.974-46.098c3.573-0.274,7.346-1.419,11.261-3.598v23.494c0,34.286,10.739,44.935,23.824,47.358
			c-0.843,0.449-1.669,0.912-2.483,1.383c-0.126-0.053-0.254-0.098-0.379-0.152c0.111,0.062,0.226,0.115,0.337,0.176
			c-15.306,8.848-25.639,21.252-30.824,34.541c1.74,0.741,3.415,1.56,5.006,2.474c11.463-32.42,56.829-59.826,133.848-36.461
			c13.05,4.067,24.913,7.118,35.59,9.66c-0.151,0.731-0.311,1.444-0.467,2.165c-9.764-2.373-20.467-5.192-32.123-8.825
			c-76.33-23.156-121.578,3.552-133.538,35.587c0.636,0.452,1.255,0.921,1.856,1.407c11.721-32.216,57.024-59.25,133.682-35.994
			c10.829,3.376,20.826,6.044,30.019,8.308c-1.242,5.656-2.653,10.958-4.207,15.947l3.368,0.008l0.135,20.642
			c5.793-10.313,10.722-22.292,14.475-36.193c64.91,13.05,82.049-1.525,68.66-20.507c-0.503-0.73-1.021-1.392-1.544-2.02
			c1.568,1.285,3.104,2.93,4.544,5.02c13.389,18.981-3.75,33.557-68.66,20.507c-4.375,16.204-10.344,29.801-17.423,41.185
			l0.026,4.069c7.945-11.986,14.621-26.565,19.396-44.254C655.027,400.154,672.166,385.579,658.777,366.598z M508,301.415v-0.508
			c0-18.923-2.602-29.62-7.112-35.459c6.341,4.803,10.112,15.669,10.112,38.459v0.508c0,17.645,0.592,27.441,3.498,32.323
			C508.963,333.71,508,323.971,508,301.415z M374.8,252.267c2.374,0,4.351,1.458,5.921,3.827c-0.896-0.526-1.867-0.827-2.921-0.827
			c-13.033,0-11.538,20.85-1.405,32.62C363.655,277.127,360.57,252.267,374.8,252.267z M384.121,292.095
			c-1.635-0.457-3.178-1.147-4.631-2.005c-11.105-11.488-13.18-33.823,0.31-33.823c0.384,0,0.752,0.055,1.114,0.131
			c2.786,4.438,4.225,11.812,4.225,18.918C385.139,280.909,384.63,286.671,384.121,292.095z M394.892,291.847
			c-1.182,0.362-2.344,0.613-3.482,0.756c0.848-5.593,1.187-11.355,1.187-17.287c0-9.199-2.813-16.857-6.836-21.82
			c5.551,4.489,9.836,13.473,9.836,24.82C395.596,282.93,395.382,287.438,394.892,291.847z M577.896,292.264
			c-0.678,26.269-8.006,46.099-18.006,46.099c-1.741,0-3.273-0.214-4.622-0.671c-3.319-5.166-4.269-15.076-4.269-31.937v-1.356
			c0-27.456,7.791-36.607,18.129-36.607c1.561,0,2.947,0.252,4.186,0.709c-1.685-1.087-3.721-1.709-6.186-1.709
			c-10.338,0-18.129,9.151-18.129,36.607v1.356c0,16.949,0.959,26.873,4.32,32.017c-5.821-3.61-7.32-13.823-7.32-35.017v-1.356
			c0-27.456,7.791-36.607,18.129-36.607c10.508,0,13.301,11.186,13.64,22.371C577.938,288.026,577.896,290.229,577.896,292.264z"/>
		<path d="M471.729,481.948c-1.34,0.037-2.667,0.062-3.979,0.072l0.006,1.004c0.2,0,0.396,0.006,0.597,0.006
			c1.115,0,2.243-0.012,3.379-0.03L471.729,481.948z"/>
		<path d="M511.002,476.604l-1.461-1.196c-8.257,2.716-16.541,4.464-24.541,5.476v1.24C494,481.18,502.248,479.435,511.002,476.604z
			"/>
		<path d="M506.208,472.537l-4.288-3.596c-5.598,1.615-10.92,2.719-16.92,3.446v5.079C492,476.437,499.11,474.846,506.208,472.537z"
			/>
	</g>
</g>
</svg>
