<?xml version="1.0" encoding="utf-8"?>
<!DOCTYPE svg>
<svg version="1.1" id="Swing-Spring-Logo" xmlns="http://www.w3.org/2000/svg" xmlns:xlink="http://www.w3.org/1999/xlink" x="0px" y="0px" width="750.531px" height="599.343px" viewBox="121.582 648.544 750.531 599.343" enable-background="new 121.582 648.544 750.531 599.343" xml:space="preserve">
<title>Swing Spring 2015</title>
<desc>Swing Spring 2015 logo</desc>
<path id="shine" fill="none" stroke="#000000" stroke-width="4.6793" stroke-linecap="round" stroke-linejoin="round" stroke-miterlimit="10" d="
	M518.275,650.883l0.108,166.023 M564.221,721.893l-13.541,97.535 M594.934,782.1l-11.413,39.694 M675.721,683.562l-57.056,140.729
	 M679.911,791.837l-24.909,40.974 M747.1,770.873l-56.053,70.95 M803.891,776.982l-75.836,77.02 M758.035,866.549l46.585-37.706
	 M486.031,818.631l-13.49-97.216 M441.842,781.607l11.504,39.966 M361.047,683.086l57.848,142.619 M381.783,832.335l-24.882-40.976
	 M345.652,841.213l-55.995-70.831 M232.874,776.506l75.588,76.77 M232.148,828.365l46.179,37.35"/>
<path id="y20" d="M150.804,956.99c8.662,0.514,18.021,5.12,18.021,16.818c0,8.854-9.66,18.821-20.446,27.616
	c9.625-10.341,12.532-17.009,12.532-25.444C160.912,965.564,157.199,958.74,150.804,956.99 M144.19,1012.771
	c1.846,0,3.469,0.315,4.937,0.953c4.138,1.844,7.606,2.74,10.6,2.74c2.934,0,5.259-0.833,7.108-2.219
	c-3.328,4.188-7.762,6.427-13.065,6.427c-1.764,0-3.609-0.258-5.536-0.779c-0.688-0.172-1.404-0.357-2.137-0.548
	c-3.921-1.019-8.363-2.172-12.118-2.172c-0.784,0-1.514,0.049-2.193,0.149c0.078-0.061,0.156-0.119,0.236-0.18l0.095-0.07
	l0.084-0.078c1.168-1.053,2.294-2.075,3.374-3.068l5.669-0.908C142.272,1012.855,143.263,1012.771,144.19,1012.771 M149.146,954.38
	c-12.141,0-23.516,8.691-26.712,20.322c-3.451,12.525,3.963,23.646,15.592,23.646c3.069,0,2.939-3.708,0.129-3.708
	c-9.458,0-13.676-10.225-11.758-17.255c3.323-12.269,12.269-18.278,20.959-18.278c7.414,0,10.992,7.029,10.992,16.872
	c0,11.248-5.752,19.172-27.863,39.11c-1.535,1.149-2.812,2.301-3.835,3.451c-0.128,0.127-0.254,0.255-0.383,0.255l0.129,0.128
	c-1.663,1.918-2.686,3.964-2.686,5.624c0,2.545,0.725,3.414,1.535,3.414c1.02,0,2.171-1.378,2.171-2.519
	c0-4.359,2.772-5.711,6.562-5.711c4.096,0,9.383,1.579,13.633,2.643c2.106,0.57,4.167,0.855,6.159,0.855
	c10.957,0,19.798-8.644,21.962-26.164c0.405-3.248-0.621-4.92-1.774-4.92c-1.022,0-2.143,1.319-2.444,4.026
	c-1.368,12.313-5.079,17.728-11.786,17.728c-2.69,0-5.862-0.873-9.559-2.519c-1.909-0.829-3.925-1.175-5.979-1.175
	c-1.109,0-2.23,0.102-3.35,0.28c13.803-10.223,30.547-23.9,30.547-36.681C171.388,960.387,160.395,954.38,149.146,954.38
	L149.146,954.38z M219.454,963.979c11.104,4.895,13.016,18.693,13.016,27.596c0,10.339-4.479,19.624-11.032,24.771
	c3.662-5.218,4.652-13.755,4.652-24.387C226.091,980.466,225.446,969.171,219.454,963.979 M199.225,965.799
	c-4.626,5.539-5.481,15.219-5.481,25.39c0,11.066,0.602,21.946,6.058,27.328c-10.591-5.113-12.436-18.583-12.436-27.328
	C187.364,980.42,192.223,970.796,199.225,965.799 M210.108,959.62h-0.128c-13.164,0-25.178,13.548-25.178,31.57
	c0,15.082,5.367,31.953,24.923,31.953h0.129c13.162,0,25.177-13.549,25.177-31.569C235.032,976.492,229.792,959.62,210.108,959.62
	L210.108,959.62z M209.214,1019.437c-10.097,0-12.908-8.691-12.908-28.248c0-19.426,3.578-27.607,14.186-27.607h0.129
	c10.098,0,12.908,8.819,12.908,28.375c0,19.299-3.451,27.479-14.186,27.479L209.214,1019.437L209.214,1019.437z"/>
<path id="y15" d="M808.824,965.473c0.151,0.842,0.274,2.061,0.274,3.797c0,2.432-0.027,10.185-0.054,18.404
	c-0.031,9.279-0.065,19.154-0.065,22.647c0,2.97,0,8.972-0.811,10.561c-0.316-0.105-0.949-0.392-1.995-1.174
	c-2.701-2.102-2.753-2.143-2.658-7.188c0.439-13.587,2.341-31.868,4.424-42.521L808.824,965.473 M808.79,961.365
	c-0.099,0-0.201,0.008-0.307,0.024c-0.706,0-2.116,1.06-3.646,3.412c-3.764,5.646-9.763,11.408-13.408,14.702
	c-3.53,3.176-4.824,4.469-3.999,5.41c0.301,0.345,0.649,0.562,1.132,0.562c0.836,0,2.073-0.655,4.161-2.443
	c4.233-3.529,9.292-9.057,12.702-13.527c-2.001,10.233-3.998,28.347-4.47,42.932c-0.117,6.233,0.472,6.822,3.647,9.292
	c1.619,1.213,2.858,1.774,3.813,1.774c2.926,0,3.125-5.286,3.125-13.183c0-6.588,0.119-35.875,0.119-41.052
	C811.66,964.888,810.91,961.365,808.79,961.365L808.79,961.365z M838.632,959.914c2.146,0,4.342,0.684,7.123,1.55
	c1.149,0.357,2.338,0.728,3.675,1.101l0.034,0.009l0.031,0.009c0.632,0.157,1.29,0.329,1.964,0.503
	c3.619,0.94,7.722,2.007,11.203,2.007c0.438,0,0.852-0.019,1.246-0.051c-3.003,2.069-6.862,3.696-10.707,3.696
	c-1.6,0-3.083-0.294-4.365-0.854c-1.359-0.624-2.542-1.236-3.686-1.828c-2.99-1.547-5.572-2.882-8.664-2.882
	c-0.866,0-1.718,0.102-2.604,0.312l-0.11,0.026l-0.107,0.036c-1.418,0.47-2.938,1.655-4.677,9.156
	c1.088-6.795,2.729-10.722,4.879-11.679C835.574,960.268,837.089,959.914,838.632,959.914 M849.355,988.224
	c6.959,0.54,14.196,3.667,14.196,14.332c0,9.2-7.539,18.262-16.715,21.549c5.871-3.435,9.842-10.809,9.842-19.55
	C856.679,1001.001,856.679,991.45,849.355,988.224 M827.637,988.719c0.16,0.339,0.352,0.637,0.574,0.904
	c0.203,0.244,0.433,0.459,0.682,0.641c-0.14,0.016-0.274,0.024-0.398,0.024c-0.247,0-0.355-0.033-0.368-0.033v0.001
	C827.923,990.057,827.74,989.604,827.637,988.719 M828.593,1000.178c2.33,0,2.819,1.697,2.922,2.429
	c0.116,0.831-0.107,1.79-0.71,1.962c-4.529,1.344-7.126,4.084-7.126,7.516v0.005c-0.438-1.912-0.64-3.875-0.64-5.768
	C823.039,1006.069,823.103,1000.178,828.593,1000.178 M870.699,954.956c-0.938,0-1.999,1.269-1.999,2.318
	c0,4.013-2.551,5.256-6.038,5.256c-3.77,0-8.635-1.455-12.545-2.433c-4.742-1.32-7.992-2.744-11.487-2.744
	c-1.792,0-3.65,0.375-5.804,1.332c-2.116,0.941-4.939,3.412-6.587,15.057c-2.113,14.796-1.644,19.109,2.255,19.109
	c1.091,0,2.449-0.338,4.095-0.879c4.449-1.507,8.107-2.269,11.066-2.269c7.446,0,10.461,4.837,10.461,14.854
	c0,9.998-6,19.054-14.821,19.054c-9.879,0-13.055-3.88-13.055-11.525c0-2.354,2.116-4.117,5.293-5.059
	c4.116-1.175,3.41-9.41-2.94-9.41c-5.765,0-8.115,4.824-8.115,8.705c0,11.643,6.587,21.643,19.171,21.643
	c13.174,0,26.465-12.116,26.465-25.406c0-12.432-8.859-16.988-19.194-16.988c-4.822,0-9.964,0.992-14.68,2.639
	c-0.394,0.144-0.745,0.222-1.054,0.222c-1.729,0-2.124-2.43-0.828-9.512c1.883-10.704,3.413-12.705,4.117-12.939
	c0.703-0.167,1.367-0.242,2.013-0.242c3.453,0,6.322,2.195,11.278,4.476c1.732,0.756,3.57,1.088,5.437,1.088
	c9.164,0,18.911-8.021,18.911-13.202C872.112,955.756,871.443,954.956,870.699,954.956L870.699,954.956z"/>
<g id="Swing-spring">
	<path id="Swing-white-shadow" fill="#FFFFFF" d="M370.125,1078.085c0,35.85-30.017,56.336-62.296,62.842l-0.1-6.264
		c28.449-6.205,53.712-24.964,53.712-53.322c0-42.985-98.778-73.596-98.778-145.456c0-25.184,24.965-37.34,45.156-37.34
		c22.362,0,42.551,13.024,42.551,39.945c0,6.514-6.078,16.719-18.018,16.719c-13.026,0-14.545-14.764-6.078-16.935
		c6.73-1.521,10.855-4.125,10.855-8.033c0-16.282-14.329-25.184-31.479-25.184c-16.282,0-34.519,8.684-34.519,27.57
		C271.128,974.746,370.125,1012.087,370.125,1078.085z M532.914,920.255c6.295,0,11.288-4.992,11.288-10.855
		c0-5.862-4.993-10.856-11.288-10.856c-6.08,0-11.289,4.994-11.289,10.856C521.625,915.263,526.834,920.255,532.914,920.255z
		 M267.002,1008.395c-10.855,1.954-52.104,26.488-52.104,66.867c0,30.059,17.803,53.02,42.576,62.793
		c0.017,0.007,0.032,0.014,0.049,0.02l0.111-6.354c-25.248-10.167-36.006-33.683-36.006-56.457
		c0-29.959,27.139-47.762,38.427-49.933c4.343-0.868,8.25,2.824,11.288,10.205c4.126,8.901,20.409,4.126,17.586-10.639
		C286.542,1011.652,274.603,1006.877,267.002,1008.395z M714.229,1135.66c-24.373,43.794-61.217,57.692-96.073,61.103v6.613
		c32.108-3.798,68.13-16.786,96.073-48.588V1135.66z M751.526,1081.775c-6.046,22.393-14.469,40.899-24.488,56.15v-31.683
		c2.905-8.643,5.452-18.072,7.581-28.375c-13.678-3.256-28.873-7.164-45.59-12.374c-97.77-29.659-155.733,4.549-171.063,45.584
		c-1.93-1.371-3.978-2.616-6.127-3.745c7.229-17.297,21.326-33.293,42.042-44.35c-16.762-3.104-30.518-16.746-30.518-60.666v-39.433
		c-7.327,5.635-14.332,8.322-20.83,8.823c-6.078,33.866-21.916,59.05-37.115,59.05c-11.072,0-19.952-6.946-26.03-19.537
		c-9.553,12.156-20.366,19.537-29.052,19.537c-22.362,0-38.129-22.36-38.129-64.261v-29.308c0-11.506,0.598-12.374,6.676-16.935
		c12.158-9.118,12.538,1.521,12.538,21.058v23.883c0,33.649,4.106,57.964,22.126,57.964c6.295,0,14.744-7.816,22.559-20.407
		c-3.256-9.986-4.976-22.145-4.976-36.257v-29.308c0-11.505,0.491-12.374,6.567-16.934c12.157-9.118,12.647,1.521,12.647,21.058
		v23.883c0,31.911,2.1,57.964,18.164,57.964c9.553,0,20.334-23.013,24.677-52.104c-29.959-7.815-42.985-63.176-11.072-63.176
		c11.289,0,22.796,14.763,22.796,35.821c0,7.599-0.435,14.98-1.521,22.145c6.191-0.773,12.899-3.971,19.972-10.494v-3.834
		c0-11.505,0.599-12.592,6.677-16.935c12.157-9.117,12.538,1.521,12.538,21.06v46.677c0,43.42,6.024,54.709,22.307,54.709
		c0.891,0,2.441-0.169,4.349-0.812c0.025-0.009,0.052-0.012,0.077-0.021c30.376-10.997,71.476-12.542,122.764,3.003
		c16.282,4.992,30.833,8.9,44.076,12.157c3.257-18.235,5.438-38.86,6.09-62.308c-6.08,13.895-14.961,21.709-26.25,21.709
		c-11.7,0-21.824-3.244-27.836-16.402c-6.567,12.996-14.897,16.402-22.438,16.402c-17.151,0-32.188-9.117-32.188-53.623v-0.65
		c0-36.474,1.8-46.894-11.009-46.894c-11.072,0-29.461,12.157-29.461,78.591c0,0.433,0.016,0.868-0.201,1.086
		c0,2.387,0.247,4.342,0.247,4.992c0.436,15.849-6.883,17.151-16,16.282c-6.948-0.434-3.782-3.691-3.782-19.756v-73.597
		c0-11.505,0.706-12.374,6.568-16.934c12.158-9.118,12.646,1.521,12.646,21.058v13.46c7.686-26.051,21.745-31.912,31.731-31.912
		c17.15,0,28.475,8.899,28.475,53.622v0.651c0,36.255,1.932,46.676,14.958,46.676c5.988,0,12.641-3.557,17.511-17.549
		c-1.847-7.05-3.006-16.006-3.006-27.391v-1.736c0-42.769,28.485-54.273,46.072-54.273c6.513,0,11.337,1.735,14.593,4.776
		c0.868-3.258,2.605-4.559,6.08-7.382c12.156-9.118,12.808,1.521,12.808,21.058c0,15.63,0.217,49.065,0.217,53.188
		c0,31.263-3.256,57.966-8.683,80.762c79.023,16.716,90.747-1.304,79.893-16.718c-3.475-5.209-18.02,2.822-22.579-4.992
		c-4.56-7.599,15.414-17.585,28.875,1.953C856.629,1079.822,834.675,1098.492,751.526,1081.775z M495.359,943.7
		c0-14.329-4.561-29.525-13.244-29.525c-21.492,0-12.156,44.289,11.94,51.02C494.707,958.247,495.359,950.866,495.359,943.7z
		 M742.113,957.595c-0.434-14.329-4.012-28.656-17.472-28.656c-13.243,0-23.224,11.722-23.224,46.893v1.737
		c0,35.387,3.25,46.893,17.795,46.893c12.81,0,22.196-25.402,23.064-59.052C742.276,962.805,742.33,959.982,742.113,957.595z
		 M531.035,1174.697c-1.385,2.411-2.962,4.656-4.672,6.754c14.878,13.974,38.07,23.203,69.91,23.203c2.134,0,4.311-0.043,6.51-0.119
		v-6.899c-1.727,0.036-3.451,0.07-5.153,0.07C566.929,1197.706,544.811,1188.473,531.035,1174.697z"/>
	<g id="SPRING-white-fill">
		<path fill="#FFFFFF" d="M197.685,1137.084c-6.649-1.743-30.263-6.925-30.587-12.747c-0.536-9.618,14.603-10.756,20.537-10.21
			c10.536,0.968,18.892,8.188,24.963,16.372c8.595-2.116,13.744-6.272,17.938-12.705c-0.813-1.711-15.776-26.295-67.501-18.324
			c-9.455,2.084-18.99,4.163-26.902,13.832c-6.253,7.643-8.097,17.89-8.17,27.472c3.625,42.298,50.323,41.673,80.152,55.304
			c3.501,1.6,10.052,8.132,9.528,15.32c-1.542,15.902-23.888,20.363-37.807,19.963c-12.678-0.366-33.551-7.531-33.377-22.579
			c0.088-7.685,12.078-14.012,12.703-15.88c-10.588-8.345-19.057-12.828-25.408-13.453c-11.169,10.755-19.175,29.489-3.106,49.161
			c5.573,6.509,24.602,19.033,53.735,19.033c18.386,0,39.746-4.937,52.502-19.207c13.182-14.75,13.797-41.887,8.78-55.9
			C242.282,1163.082,234.433,1145.852,197.685,1137.084z"/>
		<path fill="#FFFFFF" d="M346.518,1098.36l-91.322-0.37l-0.56,148.16l1.308,1.307l52.874-1.307l0.747-31.017
			c39.435-1.711,80.746-14.521,83.691-64.827C393.354,1119.431,368.321,1098.509,346.518,1098.36z M310.125,1197.198l-0.561-81.272
			c11.216,1.218,25.824-2.099,25.901,42.418C336.197,1194.45,320.887,1194.967,310.125,1197.198z"/>
		<path fill="#FFFFFF" d="M537.114,1213.641c-31.09,17.343-50.41-4.647-50.06-6.353c11.46-5.231,50.39-19.325,50.071-56.237
			c-0.368-42.592-37.055-53.807-76.039-53.061l-61.095,1.308l1.308,87.064l0.675,59.788c23.352-0.51,53.586-0.863,53.586-0.863
			c-1.12-16.732,0.562-30.163,0.562-30.163s1.846-0.238,3.342-0.735c26.707,50.541,62.573,29.292,65.293,27.837
			C531.646,1238.54,539.119,1229.916,537.114,1213.641z M456.582,1196.136l-1.525-80.229c11.405,1.646,24.214,0.319,24.283,40.751
			C480.098,1194.077,464.608,1195.329,456.582,1196.136z"/>
		<polygon fill="#FFFFFF" points="544.412,1097.818 544.976,1246.965 598.406,1246.956 597.651,1097.805 		"/>
		<path fill="#FFFFFF" d="M728.97,1097.854l0.961,147.672c0,0-20.116,0.32-20.336,0.32l-89.893-76.296l-0.017,77.337h-17.17
			l-0.283-148.886l18.175,0.293l92.15,78.635l-0.16-79.115L728.97,1097.854z"/>
		<path fill="#FFFFFF" d="M814.635,1140.567l0.319,89.747c-13.191-0.399-22.687-4.083-22.096-60.446
			c-1.606-37.557,6.781-49.529,20.836-54.019c15.359-4.241,23.892-1.437,30.428,11.471c5.158-1.3,13.119-0.134,18.47-10.836
			c-16.092-18.495-39.427-18.495-50.263-18.495c-23.041,0-41.661,7.038-55.862,21.112c-13.329,13.203-19.99,30.827-19.99,52.872
			c0,8.595,1.118,17.188,3.362,25.784c2.489,9.468,8.222,18.436,17.186,26.904c8.099,7.723,17.127,13.451,27.093,17.188
			c13.327,3.738,25.956,5.604,38.285,5.604c18.435,0,32.735-4.171,44.265-12.517v-94.37H814.635z"/>
	</g>
	<g id="SPRING">
		<g id="S">
			<path d="M197.685,1137.084c-6.649-1.743-30.263-6.925-30.587-12.747c-0.536-9.618,14.603-10.756,20.537-10.21
				c10.536,0.968,18.892,8.188,24.963,16.372c8.595-2.116,13.744-6.272,17.938-12.705c-0.813-1.711-15.776-26.295-67.501-18.324
				c-9.455,2.084-18.99,4.163-26.902,13.832c-6.253,7.643-8.097,17.89-8.17,27.472c3.625,42.298,50.323,41.673,80.152,55.304
				c3.501,1.6,10.052,8.132,9.528,15.32c-1.542,15.902-23.888,20.363-37.807,19.963c-12.678-0.366-33.551-7.531-33.377-22.579
				c0.088-7.685,12.078-14.012,12.703-15.88c-10.588-8.345-19.057-12.828-25.408-13.453c-11.169,10.755-19.175,29.489-3.106,49.161
				c5.573,6.509,24.602,19.033,53.735,19.033c18.386,0,39.746-4.937,52.502-19.207c13.182-14.75,13.797-41.887,8.78-55.9
				C242.282,1163.082,234.433,1145.852,197.685,1137.084z M132.281,1227.234c-9.543-10.757-13.377-30.44,2.758-45.606
				c0,0,13.793,5.684,20.935,11.582c-33.327,20.779,6.629,45.5,33.459,40.322c9.618-1.855,22.254-4.379,27.873-13.264
				c6.787-12.839-1.222-24.631-12.918-27.938c-20.328-8.543-51.52-12.601-65.041-28.159c-11.06-12.727-11.415-32.495-4.11-45.802
				c6.566-11.962,21.958-14.789,29.129-16.252c13.072-2.154,27.322-2.303,40.123,1.379c5.934,1.707,13.959,3.503,23.421,14.112
				c-1.804,3.263-7.248,7.306-13.894,10.228c-10.514-16.092-31.258-17.736-40.849-14.712c-9.59,3.024-9.429,12.07-6.147,15.192
				c3.11,2.958,11.061,5.301,11.061,5.301c16.561,6.309,53.373,9.177,63.821,35.913c9.407,25.466,4.764,52.526-18.378,67.04
				C190.464,1254.562,145.256,1243.195,132.281,1227.234z"/>
			<path d="M207.555,1235.5c18.151-9.851,18.105-21.177,15.884-32.318c-6.059-26.427-80.144-18.798-86.44-54.56
				c-4.732-26.883,12.828-42.602,35.227-42.783c-11.529,6.547-13.931,10.069-13.617,15.885c1.232,20.977,45.691,17.55,69.684,37.571
				C252.285,1179.316,248.124,1234.949,207.555,1235.5z"/>
			<path d="M146.656,1193.729l-11.032-7.178c-22.75,32.371,18.81,54.188,30.641,50.091
				C150.809,1234.057,126.751,1213.37,146.656,1193.729z"/>
		</g>
		<g id="P">
			<path d="M364.518,1102.917L364.518,1102.917c-0.352,0.72-0.754,1.406-1.138,2.105c14.896,7.49,27.336,23.698,26.714,45.313
				c0.324,14.569-6.188,61.646-83.146,62.486l-0.744,31.504h-48.793l0.438-143.919l88.167,0.033
				c3.388,0.093,6.851,0.686,10.273,1.729c0.365-0.697,0.742-1.389,1.072-2.104l0,0c-3.618-1.092-7.273-1.681-10.842-1.706
				l-91.322-0.371l-0.56,148.16l1.308,1.307l52.874-1.307l0.747-31.016c39.435-1.712,80.746-14.521,83.691-64.828
				C393.327,1127.859,380.114,1110.685,364.518,1102.917z"/>
			<path d="M382.025,1134.782c-3.131-10.061-9.989-18.298-19.311-23.219c1.622-2.31,3.076-4.741,4.336-7.302
				c-0.835-0.479-1.682-0.92-2.534-1.341c-6.304,12.849-17.25,22.27-29.837,28.747c-0.001-0.009-0.003-0.018-0.005-0.026
				c-0.617,0.317-1.233,0.637-1.858,0.939c0.001,0.006,0.002,0.011,0.003,0.016c-7.387,3.591-15.275,6.2-23.084,7.915l-0.032-4.751
				c21.034-5.391,40.366-16.887,50.05-34.895c-2.502-0.915-5.034-1.589-7.557-2.004c-1.426,2.633-3.12,5.117-5.022,7.468
				c-8.324-1.59-18.314-1.966-30.331-0.678c-0.448,0.048-1.399,1.445-0.526,1.646c8.262,0.743,14.62,4.123,19.254,9.852
				c-1.76,1.266-3.604,2.453-5.507,3.577c-5.888-7.927-14.737-6.033-23.187-6.857v85.382c15.372-0.562,31.389-3.239,30.024-45.773
				c-0.132-8.057-0.742-14.438-1.731-19.51c2.395-1.158,4.734-2.402,6.984-3.756c3.973,12.999,3.862,27.428,2.563,40.847
				c-0.852,8.796-2.626,18.476-8.767,25.252c-4.791,5.288-11.662,7.761-18.542,8.919c12.906,0.754,25.875-1.936,37.398-7.801
				c7.591-3.865,15.034-9.094,20.368-15.821c4.387-5.523,6.635-12.916,7.928-19.74
				C384.797,1152.949,384.737,1143.499,382.025,1134.782z M327.72,1122.048c-5.607,3.053-11.705,5.513-18.062,7.313l-0.092-13.436
				C315.564,1116.576,322.522,1115.973,327.72,1122.048z M335.465,1158.344c0.73,36.107-14.58,36.623-25.34,38.854l-0.378-54.88
				c8.158-1.599,16.175-4.102,23.62-7.507C334.675,1140.598,335.449,1148.228,335.465,1158.344z"/>
			<polygon points="263.231,1106.654 262.483,1239.202 299.662,1239.202 300.225,1105.98 263.977,1105.98 263.231,1106.654 			"/>
		</g>
		<g id="R">
			<path d="M487.055,1207.288c11.46-5.231,50.39-19.325,50.071-56.237c-0.368-42.592-37.055-53.807-76.039-53.061l-61.095,1.308
				l1.308,87.064l0.675,59.788c23.352-0.51,53.586-0.863,53.586-0.863c-1.12-16.732,0.562-30.163,0.562-30.163
				s1.846-0.238,3.342-0.735c26.707,50.541,62.573,29.292,65.293,27.837c6.891-3.686,14.362-12.31,12.357-28.585
				C506.026,1230.983,486.705,1208.993,487.055,1207.288z M503.873,1245.589c-29.657,0.339-42.467-34.088-42.467-34.088
				s-5.801,0.709-7.42,1.578c-0.501,4.733-0.501,25.036,0,29.894c-5.481-0.248-13.578-0.155-24.287,0.28
				c-10.715,0.438-18.87,0.53-24.476,0.28l-2.055-141.621c2.736,0.127,45.445-0.933,60.16-1.679
				c20.664-1.048,71.013,4.625,71.368,51.751c-0.115,12.119-2.678,19.43-8.032,26.53c-8.472,11.086-22.98,20.428-43.534,28.024
				c20.948,26.979,48.598,12.029,51.944,10.463C536.183,1218.627,538.745,1242.564,503.873,1245.589z M452.671,1114.06l1.866,85.198
				c12.774-0.468,28.509-5.571,27.271-44.144C481.134,1113.633,466.598,1115.414,452.671,1114.06z M456.582,1196.136l-1.525-80.229
				c11.405,1.646,24.214,0.319,24.283,40.751C480.098,1194.077,464.608,1195.329,456.582,1196.136z"/>
			<path d="M474.723,1203.324c30.241-6.783,68.346-30.519,50.072-72.081c-14.343-24.196-41.077-27.183-65.016-24.098
				c23.938,3.962,28.695,20.362,29.412,49.63c0.718,29.268-4.21,41.645-24.184,47.151c4.19,29.3,45.929,53.316,64.273,22.467
				C509.016,1234.398,487.773,1223.616,474.723,1203.324z"/>
			<path d="M409.148,1107.981l2.428,129.939h35.871l-2.616-131.292C439.849,1106.381,414.998,1107.609,409.148,1107.981z"/>
		</g>
		<g id="I">
			<path d="M597.659,1204.678v-0.035c0,0.009-1.362-0.026-2.312-0.026c-0.109,0-0.197,0-0.25,0v0.014
				c-16.952-0.142-34.158-2.857-49.534-10.225c0.131,0.067,0.264,0.129,0.395,0.196c-0.394-0.186-0.796-0.359-1.183-0.55l0.2,52.912
				l53.164-0.008L597.659,1204.678z M547.701,1244.486v-49.027c1.686,0.816,3.39,1.597,5.124,2.308v40.154h35.867v-32.333
				c2.091,0.138,4.233,0.221,6.405,0.275v38.463L547.701,1244.486z"/>
			<path d="M598.158,1197.704L598.158,1197.704l-0.507-99.899l-53.239,0.014l0.33,87.418l0,0l0.027,6.729
				c12.887,5.576,28.741,8.846,47.662,8.846c1.887,0,3.804-0.031,5.741-0.09L598.158,1197.704z M588.692,1193.766v-86.504h-0.091
				l-35.776-0.868v80.628c-1.769-0.675-3.464-1.409-5.124-2.169v-83.836l47.396-0.16v92.995c-0.436,0.003-0.878,0.013-1.311,0.013
				C592.058,1193.863,590.367,1193.823,588.692,1193.766z"/>
		</g>
		<g id="N">
			<path d="M728.97,1097.854l-16.573-0.04l0.16,79.115l-11.039-9.42c-0.438,0.385-0.882,0.755-1.32,1.133l0.011,0.008
				c-1.779,1.526-3.572,3.009-5.389,4.42l-0.028-0.025c-11.115,8.581-23.094,15.109-35.062,19.887l0.075,0.064
				c-2.012,0.8-4.029,1.537-6.047,2.246l-0.052-0.044c-0.9,0.317-1.801,0.624-2.699,0.922l58.59,49.728
				c0.219,0,20.335-0.32,20.335-0.32L728.97,1097.854z M711.062,1243.854l-55.487-47.069c2.023-0.698,4.046-1.426,6.065-2.216
				l50.73,43.353h8.753l-0.979-43.338l-23.319-19.809c1.828-1.408,3.634-2.884,5.424-4.404l12.493,10.521l-0.104-81.314h11.559
				l1.411,143.869L711.062,1243.854z"/>
			<path d="M690.891,1158.44l-70.483-60.146l-18.175-0.293l0.283,148.886h17.17l0.017-77.336l27.031,22.942
				c17.453-5.678,34.897-14.734,50.627-28.532L690.891,1158.44z M684.624,1164.41l-66.534-56.519l-8.901-0.746v42.594l41.144,35.161
				c-2.07,0.773-4.15,1.49-6.238,2.145l-26.729-22.674l-0.055,80.436l-12.19-0.266l-0.966-143.685h15.548l69.904,58.866
				C687.972,1161.36,686.31,1162.919,684.624,1164.41z"/>
		</g>
		<g id="G">
			<path d="M814.635,1140.567l0.319,89.747c-13.191-0.399-22.687-4.083-22.096-60.446c-1.606-37.557,6.781-49.529,20.836-54.019
				c15.359-4.241,23.892-1.437,30.428,11.471c5.158-1.3,13.119-0.134,18.47-10.836c-16.092-18.495-39.427-18.495-50.263-18.495
				c-23.041,0-41.661,7.038-55.862,21.112c-13.329,13.203-19.99,30.827-19.99,52.872c0,8.595,1.118,17.188,3.362,25.784
				c2.489,9.468,8.222,18.436,17.186,26.904c8.099,7.723,17.127,13.451,27.093,17.188c13.327,3.738,25.956,5.604,38.285,5.604
				c18.435,0,32.735-4.171,44.265-12.517v-94.37H814.635z M864.103,1234.191c-12.81,7.726-27.696,11.584-45.132,11.584
				c-18.188,0-34.055-4.046-47.881-12.145c-11.586-6.848-20.113-16.377-25.715-28.583c-5.358-11.459-7.891-24.373-6.693-38.674
				c4.977-59.412,53.306-66.316,73.63-65.952c14.694,0.262,33.061,1.238,47.838,16.814c-1.122,2.369-10.958,7.351-13.449,8.222
				c-1.812-1.924-7.237-12.961-20.921-12.892c-33.681,0.168-36.977,26.617-36.764,59.581c0.363,56.41,11.05,60.974,27.587,60.888
				l0.77-89.906h46.73V1234.191z"/>
			<path d="M781.809,1171.983c0-41.664,11.84-64.722,38.74-65.586v-0.747c-39.71-3.848-75.124,19.18-77.352,60.946
				c0.063,66.865,54.294,72.456,65.823,72.456v-0.758C792.368,1235.84,781.809,1213.648,781.809,1171.983z"/>
			<path d="M858.602,1231.015l-0.682-82.393l-36.09,1.122v90.238C843.606,1240.056,858.351,1232.137,858.602,1231.015z"/>
		</g>
	</g>
	<g id="Swing-CUT">
		<path d="M544.768,1191.966l-0.031-8.528c-3.133-1.599-6.059-3.348-8.764-5.242c-1.577-1.423-3.053-2.906-4.438-4.433
			c-1.442,2.645-3.104,5.106-4.937,7.387C531.802,1185.327,537.858,1188.978,544.768,1191.966z"/>
		<path d="M255.081,1128.358c-4.513-1.708-8.586-3.828-12.227-6.295c-12.899-11.929-18.663-28.906-18.663-45.52
			c0-29.959,27.139-47.763,38.427-49.933c0.772-0.155,1.528-0.149,2.27-0.018c0.927,1.428,1.801,3.127,2.613,5.097
			c4.126,8.901,20.408,4.126,17.586-10.639c-0.655-3.629-2.042-6.6-3.844-9.001c3.641,2.727,6.62,6.93,7.687,12.844
			c2.12,11.094-6.543,16.547-12.734,14.797c5.923,4.529,17.735-0.764,15.296-13.516c-1.35-7.489-5.758-12.254-10.707-14.72
			c-4.806-5.91-12.282-7.972-17.626-6.904c-10.855,1.953-52.104,26.488-52.104,66.867c0,30.628,18.493,53.874,44.001,63.322
			L255.081,1128.358z M217.786,1071.42c0-29.959,27.139-47.763,38.427-49.933c3.064-0.613,5.908,1.054,8.387,4.673
			c-1.442-0.849-2.963-1.146-4.544-0.83c-11.288,2.17-38.427,19.975-38.427,49.933c0,15.093,4.733,30.506,15.273,42.146
			C223.663,1105.455,217.786,1088.238,217.786,1071.42z"/>
		<path d="M544.203,909.399c0,5.862-4.993,10.855-11.288,10.855c-1.311,0-2.577-0.243-3.764-0.668
			c1.824,1.221,4.011,1.948,6.325,1.948c6.295,0,11.288-4.991,11.288-10.854c0-4.593-3.068-8.638-7.423-10.182
			C542.288,902.483,544.203,905.773,544.203,909.399z"/>
		<path d="M357.598,1077.498c0,7.888-1.967,15.026-5.402,21.365c2.523,0.415,5.055,1.091,7.557,2.004
			c4.134-7.685,6.529-16.54,6.529-26.625c0-26.438-15.889-48.276-34.935-67.665c20.703,20.345,38.778,43.31,38.778,71.508
			c0,9.311-2.046,17.571-5.607,24.833c0.851,0.423,1.696,0.866,2.532,1.345c3.582-7.278,5.636-15.559,5.636-24.896
			c0-65.997-98.996-103.339-98.996-145.458c0-18.887,18.236-27.57,34.519-27.57c6.053,0,11.747,1.113,16.59,3.265
			c-5.336-2.99-11.997-4.545-19.152-4.545c-16.283,0-34.519,8.684-34.519,27.57c0,12.44,8.639,24.464,20.81,36.932
			c-14.155-13.854-24.652-27.062-24.652-40.774c0-18.887,18.236-27.571,34.519-27.571c17.151,0,31.479,8.902,31.479,25.185
			c0,3.908-4.125,6.513-10.855,8.033c-8.467,2.17-6.948,16.934,6.078,16.934c11.94,0,18.018-10.204,18.018-16.718
			c0-10.918-3.323-19.55-8.762-25.956c7.673,6.621,12.605,16.511,12.605,29.799c0,6.514-6.078,16.719-18.019,16.719
			c-1.745,0-3.276-0.271-4.611-0.735c1.796,1.229,4.176,2.016,7.173,2.016c11.94,0,18.019-10.204,18.019-16.718
			c0-15.683-6.858-26.639-17.002-33.062c-7.987-8.048-19.636-12.009-31.953-12.009c-20.191,0-45.156,12.157-45.156,37.341
			C258.818,1003.902,357.598,1034.513,357.598,1077.498z"/>
		<path d="M529.071,916.412c6.294,0,11.288-4.992,11.288-10.855s-4.994-10.855-11.288-10.855c-6.08,0-11.29,4.992-11.29,10.855
			S522.991,916.412,529.071,916.412z"/>
		<path d="M701.53,1167.521l2.036,1.736c3.056-2.668,6.045-5.515,8.958-8.55l-0.009-4.017
			C708.97,1160.588,705.3,1164.192,701.53,1167.521z"/>
		<path d="M598.172,1200.722c1.406-0.042,2.824-0.1,4.256-0.176l-0.015-6.842c-1.432,0.055-2.857,0.093-4.277,0.119
			L598.172,1200.722z"/>
		<path d="M697.36,1163.962c5.259-4.614,10.327-9.753,15.139-15.479l-0.041-20.545c-6.354,12.24-13.636,22.285-21.57,30.503
			L697.36,1163.962z"/>
		<path d="M842.04,1056.789c-2.923-4.243-6.153-7.066-9.373-8.847c-13.216-14.388-30.14-5.288-25.906,1.769
			c4.559,7.815,19.104-0.216,22.578,4.992c0.526,0.747,0.998,1.502,1.413,2.256c-4.028-1.076-11.042,1.175-15.969-0.255
			c4.084,3.219,11.467,1.026,16.478,1.252c6.731,14.018-7.297,28.038-74.578,14.938c4.921-21.987,7.853-47.495,7.853-77.108
			c0-4.125-0.217-37.559-0.217-53.189c0-14.466-0.362-24.041-5.481-24.345c2.691,3.095,2.919,11.525,2.919,23.064
			c0,15.63,0.217,49.065,0.217,53.188c0,29.944-2.993,55.695-8.014,77.848c-1.482-0.299-2.979-0.606-4.512-0.931
			c5.427-22.796,8.683-49.499,8.683-80.762c0-4.124-0.217-37.558-0.217-53.188c0-19.538-0.651-30.177-12.809-21.058
			c-3.474,2.823-5.211,4.125-6.079,7.382c-3.256-3.039-8.08-4.776-14.593-4.776c-17.587,0-46.073,11.506-46.073,54.273v1.737
			c0,11.384,1.158,20.341,3.007,27.39c-4.87,13.992-11.522,17.55-17.511,17.55c-1.582,0-3-0.158-4.271-0.493
			c-3.551-6.365-4.28-18.868-4.28-41.061v-0.651c0-32.655-6.047-46.198-15.981-51.136c-4.835-5.851-11.291-7.61-18.898-7.61
			c-7.636,0-17.646,3.439-25.375,16.69c-0.186-10.57-1.089-17.245-5.333-17.463c2.588,3.024,2.809,11.163,2.817,22.315
			c-1.399,3.04-2.692,6.475-3.842,10.37V937.47c0-19.539-0.488-30.177-12.647-21.058c-5.861,4.56-6.567,5.427-6.567,16.935v73.596
			c0,16.064-3.166,19.322,3.781,19.756c9.118,0.869,16.437-0.434,16.001-16.282c0-0.652-0.247-2.605-0.247-4.992
			c0.217-0.218,0.201-0.653,0.201-1.086c0-66.433,18.389-78.591,29.461-78.591c4.576,0,7.282,1.343,8.877,4.716
			c-1.36-0.588-3.004-0.872-5.034-0.872c-11.072,0-29.461,12.156-29.461,78.59c0,0.434,0.016,0.869-0.201,1.087
			c0,2.386,0.247,4.341,0.247,4.991c0.436,15.849-6.883,17.151-16,16.283c-0.486-0.03-0.918-0.077-1.309-0.138
			c0.623,0.902,1.792,1.289,3.87,1.418c9.118,0.869,16.437-0.434,16.001-16.282c0-0.652-0.248-2.605-0.248-4.992
			c0.217-0.218,0.201-0.653,0.201-1.086c0-66.433,18.389-78.591,29.462-78.591c1.008,0,1.915,0.074,2.749,0.212
			c2.546,6.296,1.854,18.895,1.854,41.558v0.65c0,44.506,15.036,53.623,32.187,53.623c7.541,0,15.871-3.406,22.439-16.401
			c0.918,2.008,1.943,3.761,3.042,5.33c-6.436,11.749-14.398,14.914-21.639,14.914c-4.453,0-8.76-0.624-12.702-2.313
			c4.602,2.671,9.825,3.595,15.265,3.595c6.994,0,14.659-2.972,20.975-13.767c5.966,6.739,13.968,8.643,22.895,8.643
			c11.289,0,20.171-7.815,26.25-21.709c-0.114,4.083-0.289,8.047-0.493,11.961c-5.7,8.77-13.063,13.591-21.914,13.591
			c-5.143,0-9.979-0.629-14.297-2.448c4.932,2.803,10.671,3.729,16.859,3.729c7.447,0,13.838-3.425,19.073-9.731
			c-1.04,16.53-2.877,31.538-5.317,45.205c-13.242-3.258-27.793-7.166-44.075-12.157c-51.288-15.545-92.388-14-122.764-3.003
			c-0.025,0.009-0.052,0.012-0.077,0.021c-1.906,0.644-3.457,0.812-4.349,0.812c-3.15,0-5.913-0.43-8.326-1.426
			c-5.362-7.352-7.576-21.858-7.576-48.16v-46.676c0-14.522-0.214-24.12-5.312-24.352c2.616,3.091,2.751,11.525,2.751,23.07v46.677
			c0,26.104,2.183,40.582,7.458,47.987c-8.081-5.552-11.301-20.112-11.301-51.831v-46.676c0-19.54-0.381-30.179-12.539-21.06
			c-6.078,4.343-6.676,5.428-6.676,16.935v3.834c-4.396,4.056-8.652,6.822-12.73,8.523c0.469-4.919,0.684-9.933,0.684-15.05
			c0-16.783-7.311-29.556-15.992-34.056c-3.898-4.396-8.57-6.89-13.209-6.89c-31.912,0-18.886,55.361,11.073,63.176
			c-4.343,29.091-15.124,52.104-24.677,52.104c-1.486,0-2.853-0.227-4.11-0.657c-6.558-9.395-7.649-29.271-7.649-52.184v-23.882
			c0-14.498-0.275-24.088-5.381-24.349c2.646,3.092,2.819,11.524,2.819,23.067v23.883c0,22.931,1.09,42.825,7.66,52.212
			c-10.018-6.548-11.503-29.228-11.503-56.055v-23.883c0-19.539-0.491-30.178-12.647-21.059c-6.077,4.561-6.567,5.428-6.567,16.935
			v29.308c0,14.112,1.719,26.271,4.976,36.257c-7.815,12.591-16.264,20.407-22.558,20.407c-2.408,0-4.561-0.447-6.494-1.279
			c-7.241-9.348-9.228-28.198-9.228-51.561v-23.883c0-14.521-0.215-24.118-5.313-24.351c2.617,3.09,2.751,11.524,2.751,23.069
			v23.883c0,23.094,1.937,41.784,8.978,51.24c-10.198-7.363-12.819-28.247-12.819-55.083V937.47c0-19.539-0.38-30.177-12.538-21.058
			c-6.079,4.56-6.677,5.427-6.677,16.935v29.307c0,41.901,15.768,64.262,38.129,64.262c8.684,0,19.499-7.381,29.052-19.537
			c0.881,1.824,1.828,3.515,2.823,5.097c-9.298,11.399-19.655,18.282-28.031,18.282c-4.311,0-8.375-0.839-12.13-2.482
			c4.444,2.485,9.378,3.764,14.691,3.764c8.096,0,18.041-6.442,27.091-17.165c5.677,7.811,12.963,12.041,21.586,12.041
			c15.197,0,31.037-25.183,37.115-59.051c6.498-0.501,13.503-3.187,20.83-8.823v6.522c-5.937,3.805-11.634,5.732-16.987,6.144
			c-6.078,33.866-21.916,59.051-37.115,59.051c-3.371,0-6.538-0.653-9.484-1.903c3.651,2.085,7.675,3.185,12.047,3.185
			c15.197,0,31.036-25.183,37.114-59.051c4.577-0.351,9.41-1.817,14.426-4.609v30.096c0,43.92,13.756,57.561,30.518,60.664
			c-1.08,0.575-2.138,1.169-3.181,1.771c-0.161-0.067-0.325-0.125-0.485-0.194c0.143,0.079,0.289,0.147,0.432,0.226
			c-19.606,11.334-32.843,27.224-39.484,44.246c2.229,0.949,4.374,1.998,6.412,3.169c14.684-41.529,72.797-76.636,171.456-46.705
			c16.717,5.209,31.913,9.117,45.59,12.374c-0.193,0.937-0.398,1.85-0.598,2.773c-12.508-3.04-26.218-6.651-41.149-11.305
			c-97.776-29.662-155.738,4.55-171.059,45.586c0.814,0.579,1.607,1.18,2.377,1.802c15.015-41.268,73.047-75.897,171.244-46.107
			c13.871,4.325,26.678,7.743,38.453,10.643c-1.591,7.245-3.398,14.037-5.389,20.428l4.314,0.011l0.173,26.441
			c7.421-13.21,13.734-28.556,18.542-46.362c83.148,16.717,105.103-1.953,87.951-26.269c-0.644-0.936-1.308-1.783-1.978-2.588
			c2.009,1.646,3.977,3.753,5.821,6.431c17.15,24.314-4.804,42.985-87.952,26.269c-5.604,20.757-13.25,38.175-22.318,52.757
			l0.033,5.213c10.178-15.354,18.729-34.029,24.846-56.688C837.236,1099.773,859.191,1081.103,842.04,1056.789z M648.898,973.291
			v-0.65c0-24.24-3.333-37.943-9.11-45.423c8.123,6.153,12.953,20.072,12.953,49.266v0.65c0,22.603,0.759,35.151,4.481,41.405
			C650.132,1014.66,648.898,1002.185,648.898,973.291z M478.272,910.334c3.041,0,5.573,1.867,7.585,4.901
			c-1.148-0.673-2.392-1.059-3.742-1.059c-16.694,0-14.779,26.708-1.8,41.785C463.996,942.179,460.044,910.334,478.272,910.334z
			 M490.213,961.353c-2.095-0.586-4.071-1.47-5.933-2.568c-14.226-14.716-16.883-43.327,0.397-43.327
			c0.491,0,0.963,0.071,1.427,0.168c3.568,5.686,5.412,15.131,5.412,24.233C491.517,947.023,490.864,954.404,490.213,961.353z
			 M504.01,961.034c-1.514,0.464-3.002,0.785-4.46,0.969c1.086-7.164,1.521-14.546,1.521-22.145c0-11.783-3.604-21.593-8.757-27.95
			c7.11,5.75,12.6,17.258,12.6,31.794C504.912,949.612,504.638,955.387,504.01,961.034z M738.434,961.568
			c-0.868,33.65-10.256,59.052-23.065,59.052c-2.23,0-4.192-0.273-5.921-0.859c-4.251-6.617-5.468-19.312-5.468-40.91v-1.737
			c0-35.17,9.979-46.893,23.223-46.893c1.999,0,3.775,0.323,5.362,0.908c-2.159-1.393-4.767-2.189-7.925-2.189
			c-13.242,0-23.223,11.723-23.223,46.893v1.737c0,21.711,1.229,34.424,5.534,41.013c-7.457-4.624-9.377-17.707-9.377-44.855v-1.737
			c0-35.17,9.98-46.893,23.223-46.893c13.461,0,17.039,14.329,17.473,28.657C738.487,956.14,738.434,958.962,738.434,961.568z"/>
		<path d="M602.437,1204.549c-1.717,0.048-3.417,0.08-5.098,0.093l0.008,1.286c0.257,0,0.508,0.008,0.765,0.008
			c1.429,0,2.874-0.016,4.329-0.039L602.437,1204.549z"/>
		<path d="M652.744,1197.704l-1.872-1.532c-10.576,3.479-21.188,5.718-31.437,7.015v1.588
			C630.965,1203.565,641.53,1201.33,652.744,1197.704z"/>
		<path d="M646.604,1192.494l-5.493-4.606c-7.171,2.068-13.988,3.483-21.675,4.414v6.506
			C628.403,1197.49,637.511,1195.452,646.604,1192.494z"/>
	</g>
</g>
</svg>
